<svg xmlns="http://www.w3.org/2000/svg" width="128" height="128" viewBox="0 0 128 128" fill="none">
  <rect width="128" height="128" rx="28" fill="#FFE4E6"/>
  <circle cx="64" cy="64" r="30" fill="#FDA4AF"/>
  <path d="M44 64c0-12 8-22 20-24 2 6 2 14-2 22-4 10-12 18-18 22 0-2 0-6 0-8Z" fill="#F43F5E"/>
  <path d="M84 64c0 12-8 22-20 24-2-6-2-14 2-22 4-10 12-18 18-22 0 2 0 6 0 8Z" fill="#F43F5E"/>
  <path d="M64 36c-4 0-8 4-8 8 0 4 4 8 8 8s8-4 8-8c0-4-4-8-8-8Zm-18 42c-6 0-10 4-10 10s4 10 10 10c5 0 9-3 10-8" stroke="#9F1239" stroke-width="5" stroke-linecap="round"/>
  <path d="M82 78c6 0 10 4 10 10s-4 10-10 10c-5 0-9-3-10-8" stroke="#9F1239" stroke-width="5" stroke-linecap="round"/>
  <path d="M56 70c0-4 4-6 8-6s8 2 8 6" stroke="#9F1239" stroke-width="5" stroke-linecap="round"/>
  <path d="M36 50c6-10 16-16 28-16 12 0 22 6 28 16" stroke="#FB7185" stroke-width="6" stroke-linecap="round"/>
</svg>

