<svg xmlns="http://www.w3.org/2000/svg" width="128" height="128" viewBox="0 0 128 128" fill="none">
  <rect width="128" height="128" rx="28" fill="#FFF7ED"/>
  <path d="M64 94c-18-12-30-24-30-38C34 44 44 34 56 34c6 0 12 3 16 8 4-5 10-8 16-8 12 0 22 10 22 22 0 14-12 26-30 38l-6 4-6-4Z" fill="#FB923C"/>
  <path d="M46 64a10 10 0 0 1 10-10" stroke="#7C2D12" stroke-width="4" stroke-linecap="round"/>
  <path d="M82 64a10 10 0 0 1 10-10" stroke="#7C2D12" stroke-width="4" stroke-linecap="round"/>
  <circle cx="50" cy="62" r="6" fill="#FFEDD5"/>
  <circle cx="78" cy="62" r="6" fill="#FFEDD5"/>
  <path d="M58 76c3 2 4 6 6 10 2-4 3-8 6-10 2-2 6-2 8 0l6 6" stroke="#7C2D12" stroke-width="4" stroke-linecap="round" stroke-linejoin="round"/>
  <path d="M52 80c-2-4-6-6-10-6-6 0-10 4-10 10s4 10 10 10c5 0 9-4 10-8" stroke="#FDBA74" stroke-width="5" stroke-linecap="round"/>
  <path d="M76 80c2-4 6-6 10-6 6 0 10 4 10 10s-4 10-10 10c-5 0-9-4-10-8" stroke="#FDBA74" stroke-width="5" stroke-linecap="round"/>
</svg>

