<svg xmlns="http://www.w3.org/2000/svg" width="128" height="128" viewBox="0 0 128 128" fill="none">
  <rect width="128" height="128" rx="28" fill="#ECFDF3"/>
  <path d="M34 76c0-24 18-42 42-42h18v18c0 24-18 42-42 42H34V76Z" fill="#34D399"/>
  <path d="M50 90c14-6 26-18 30-36" stroke="#065F46" stroke-width="5" stroke-linecap="round"/>
  <path d="M70 52c-6 0-12 6-12 14 0 10 9 16 14 16 5 0 10-6 10-12 0-10-6-18-12-18Z" fill="#4ADE80"/>
  <circle cx="44" cy="54" r="6" fill="#BBF7D0"/>
  <circle cx="90" cy="78" r="7" fill="#BBF7D0"/>
  <path d="M38 98c0-10 12-14 22-14 10 0 18 6 18 14H38Z" fill="#1C4532"/>
</svg>

